<?xml version="1.0" encoding="UTF-8" standalone="no"?>
<!DOCTYPE svg PUBLIC "-//W3C//DTD SVG 20010904//EN"
              "http://www.w3.org/TR/2001/REC-SVG-20010904/DTD/svg10.dtd">

<svg xmlns="http://www.w3.org/2000/svg"
     width="7.80556in" height="7.80556in"
     viewBox="0 0 562 562">
  <path id="Selection"
        fill="#06dd0d" stroke="black" stroke-width="1"
        d="M 277.01,44.00
           C 277.01,44.00 277.01,6.00 277.01,6.00
             277.27,-0.24 279.55,0.07 285.00,0.00
             285.00,0.00 285.00,31.00 285.00,31.00
             285.00,31.00 283.98,42.40 283.98,42.40
             283.98,42.40 277.01,44.00 277.01,44.00 Z
           M 253.00,1.00
           C 253.00,1.00 261.00,2.00 261.00,2.00
             260.04,15.03 266.79,27.48 254.00,24.00
             254.00,24.00 253.00,1.00 253.00,1.00 Z
           M 301.00,2.00
           C 301.00,2.00 310.00,2.00 310.00,2.00
             308.83,6.81 308.59,12.05 308.14,17.00
             307.95,19.08 308.08,22.60 306.26,23.99
             304.57,25.29 300.76,25.02 300.16,20.93
             300.16,20.93 301.00,2.00 301.00,2.00 Z
           M 235.00,40.00
           C 235.00,40.00 230.08,14.00 230.08,14.00
             229.63,11.24 228.05,6.29 231.28,4.75
             235.87,2.57 237.00,7.80 237.56,11.00
             237.56,11.00 242.00,39.00 242.00,39.00
             242.00,39.00 235.00,40.00 235.00,40.00 Z
           M 325.00,5.00
           C 325.00,5.00 333.00,5.00 333.00,5.00
             333.00,5.00 329.30,30.00 329.30,30.00
             329.30,30.00 327.11,38.36 327.11,38.36
             327.11,38.36 320.00,39.00 320.00,39.00
             320.00,39.00 325.00,5.00 325.00,5.00 Z
           M 218.00,31.97
           C 216.08,32.32 213.30,33.09 211.56,31.97
             209.41,30.52 206.55,18.89 205.78,16.00
             205.60,14.68 205.14,12.73 205.78,11.43
             206.10,10.33 206.97,9.75 208.09,9.48
             212.34,8.44 213.10,13.00 213.87,16.00
             213.87,16.00 215.42,22.00 215.42,22.00
             215.42,22.00 218.00,31.97 218.00,31.97 Z
           M 350.00,9.00
           C 350.00,9.00 357.00,11.00 357.00,11.00
             357.00,11.00 351.00,33.00 351.00,33.00
             351.00,33.00 345.00,32.00 345.00,32.00
             345.00,32.00 350.00,9.00 350.00,9.00 Z
           M 192.93,51.00
           C 192.93,51.00 188.14,37.00 188.14,37.00
             188.14,37.00 184.83,28.00 184.83,28.00
             184.10,25.87 182.14,21.37 182.78,19.28
             183.55,16.78 187.15,15.74 189.08,17.64
             190.42,18.95 192.12,24.94 192.93,27.00
             199.20,44.56 204.17,50.34 192.93,51.00 Z
           M 373.00,16.00
           C 373.00,16.00 380.00,18.00 380.00,18.00
             380.00,18.00 369.00,51.00 369.00,51.00
             369.00,51.00 362.00,50.00 362.00,50.00
             362.00,50.00 373.00,16.00 373.00,16.00 Z
           M 168.00,49.00
           C 164.70,35.12 154.15,29.39 166.00,25.00
             169.12,30.51 174.35,40.89 175.00,47.00
             175.00,47.00 168.00,49.00 168.00,49.00 Z
           M 396.00,25.00
           C 396.00,25.00 403.00,28.00 403.00,28.00
             403.00,28.00 393.00,49.00 393.00,49.00
             393.00,49.00 387.00,47.00 387.00,47.00
             387.00,47.00 396.00,25.00 396.00,25.00 Z
           M 138.00,39.00
           C 139.74,38.29 141.80,37.15 143.74,37.73
             145.93,38.39 147.78,42.11 148.87,44.00
             148.87,44.00 159.20,62.00 159.20,62.00
             160.59,64.33 164.59,70.26 164.44,72.79
             164.26,75.63 161.20,76.33 159.00,77.00
             154.18,69.60 140.12,46.43 138.00,39.00 Z
           M 404.00,77.00
           C 401.53,76.47 398.50,75.93 397.99,72.89
             397.58,70.49 400.29,66.13 401.46,64.00
             401.46,64.00 411.40,47.00 411.40,47.00
             412.53,45.07 415.32,39.82 416.79,38.59
             419.50,36.30 423.26,38.00 423.27,41.11
             423.28,43.23 419.21,49.71 417.99,52.00
             417.99,52.00 412.23,62.00 412.23,62.00
             408.73,68.31 407.07,69.92 404.00,77.00 Z
           M 130.00,72.00
           C 120.95,58.56 113.54,53.25 124.00,49.00
             124.00,49.00 136.00,69.00 136.00,69.00
             136.00,69.00 130.00,72.00 130.00,72.00 Z
           M 438.00,49.00
           C 438.00,49.00 445.00,53.00 445.00,53.00
             445.00,53.00 433.00,72.00 433.00,72.00
             433.00,72.00 426.00,69.00 426.00,69.00
             426.00,69.00 438.00,49.00 438.00,49.00 Z
           M 98.00,67.00
           C 99.49,66.23 101.23,65.04 102.99,65.15
             106.86,65.40 115.76,77.67 118.46,81.00
             120.28,83.24 124.19,87.05 124.26,89.98
             124.32,92.82 121.86,94.71 119.08,93.26
             117.37,92.36 113.57,87.67 112.13,86.00
             112.13,86.00 106.39,79.00 106.39,79.00
             102.64,74.43 100.22,72.66 98.00,67.00 Z
           M 436.00,89.00
           C 442.65,83.20 447.50,75.55 453.42,69.02
             457.85,64.15 461.36,62.99 464.00,70.00
             458.56,74.82 452.58,83.27 447.57,89.00
             442.96,94.27 439.72,96.56 436.00,89.00 Z
           M 85.00,80.00
           C 88.12,82.31 89.44,83.83 92.17,86.42
             92.17,86.42 96.94,91.01 96.94,91.01
             99.02,93.26 101.91,96.62 98.71,99.35
             98.03,99.93 97.20,100.25 96.30,100.20
             94.43,100.10 91.55,96.92 90.21,95.63
             87.87,93.37 81.24,87.58 81.87,84.16
             82.20,82.38 83.80,81.19 85.00,80.00 Z
           M 476.00,80.00
           C 477.84,81.14 480.63,82.56 480.66,85.09
             480.70,87.30 478.38,89.51 476.98,91.00
             473.07,95.14 469.55,99.37 464.00,101.00
             464.00,101.00 461.00,98.00 461.00,98.00
             462.70,92.29 471.63,84.40 476.00,80.00 Z
           M 90.00,126.00
           C 90.00,126.00 79.00,116.61 79.00,116.61
             79.00,116.61 72.00,110.92 72.00,110.92
             70.17,109.39 65.94,106.23 65.34,103.97
             64.60,101.21 67.22,98.68 70.00,99.32
             71.90,99.76 74.88,102.67 76.42,104.00
             76.42,104.00 89.00,114.46 89.00,114.46
             90.55,115.78 93.14,117.97 93.66,120.00
             94.41,122.92 91.93,124.47 90.00,126.00 Z
           M 498.00,105.00
           C 491.94,108.85 484.72,115.48 479.00,120.27
             477.02,121.93 473.90,125.27 471.06,124.55
             466.05,123.28 468.77,118.52 471.06,116.29
             475.76,111.72 489.40,99.64 495.00,98.00
             495.00,98.00 498.00,105.00 498.00,105.00 Z
           M 53.00,117.00
           C 53.00,117.00 72.00,130.00 72.00,130.00
             72.00,130.00 69.00,136.00 69.00,136.00
             69.00,136.00 55.02,127.58 55.02,127.58
             55.02,127.58 50.87,122.83 50.87,122.83
             50.87,122.83 53.00,117.00 53.00,117.00 Z
           M 494.00,137.00
           C 489.30,128.47 492.19,128.26 500.00,122.80
             501.86,121.50 505.66,118.29 507.89,118.32
             508.87,118.33 509.59,118.71 510.24,119.42
             513.22,122.67 509.36,125.75 506.98,127.63
             506.98,127.63 502.00,131.36 502.00,131.36
             502.00,131.36 494.00,137.00 494.00,137.00 Z
           M 75.00,165.00
           C 67.35,163.56 51.60,153.25 44.00,148.85
             41.38,147.33 33.35,142.46 39.43,139.12
             42.40,137.49 47.43,141.46 50.00,142.92
             50.00,142.92 77.00,158.00 77.00,158.00
             77.00,158.00 75.00,165.00 75.00,165.00 Z
           M 485.00,158.00
           C 485.00,158.00 523.00,138.00 523.00,138.00
             523.86,140.09 525.14,142.38 523.92,144.61
             522.83,146.62 518.07,148.87 516.00,150.05
             516.00,150.05 498.00,160.62 498.00,160.62
             496.06,161.74 492.29,164.20 490.09,164.21
             486.57,164.23 485.68,160.71 485.00,158.00 Z
           M 28.00,159.00
           C 28.00,159.00 49.00,169.00 49.00,169.00
             49.00,169.00 47.00,175.00 47.00,175.00
             47.00,175.00 26.00,167.00 26.00,167.00
             26.00,167.00 28.00,159.00 28.00,159.00 Z
           M 515.00,175.00
           C 514.53,173.32 513.60,170.96 514.28,169.26
             515.63,165.91 530.19,160.42 534.00,159.00
             534.00,159.00 535.70,164.79 535.70,164.79
             535.70,164.79 530.00,169.16 530.00,169.16
             530.00,169.16 515.00,175.00 515.00,175.00 Z
           M 18.02,182.00
           C 18.02,182.00 42.00,189.86 42.00,189.86
             42.00,189.86 49.98,193.72 49.98,193.72
             49.98,193.72 49.98,200.00 49.98,200.00
             49.98,200.00 27.00,192.80 27.00,192.80
             27.00,192.80 18.02,188.30 18.02,188.30
             18.02,188.30 18.02,182.00 18.02,182.00 Z
           M 512.00,192.00
           C 512.00,192.00 534.00,184.60 534.00,184.60
             540.30,182.11 543.87,180.09 546.00,188.00
             539.27,191.73 519.34,199.60 512.00,200.00
             512.00,200.00 512.00,192.00 512.00,192.00 Z
           M 11.00,205.00
           C 11.00,205.00 33.00,211.00 33.00,211.00
             33.00,211.00 32.00,217.00 32.00,217.00
             25.79,216.71 14.57,213.70 9.00,211.00
             9.00,211.00 11.00,205.00 11.00,205.00 Z
           M 529.00,210.00
           C 529.00,210.00 544.00,206.18 544.00,206.18
             544.00,206.18 550.44,206.18 550.44,206.18
             550.44,206.18 553.00,212.00 553.00,212.00
             553.00,212.00 530.00,218.00 530.00,218.00
             530.00,218.00 529.00,210.00 529.00,210.00 Z
           M 5.00,229.00
           C 5.00,229.00 30.00,232.65 30.00,232.65
             30.00,232.65 38.36,234.86 38.36,234.86
             38.36,234.86 39.00,242.00 39.00,242.00
             39.00,242.00 5.00,237.00 5.00,237.00
             5.00,237.00 5.00,229.00 5.00,229.00 Z
           M 523.00,242.00
           C 523.00,242.00 523.77,235.56 523.77,235.56
             523.77,235.56 530.00,233.00 530.00,233.00
             530.00,233.00 546.00,230.10 546.00,230.10
             546.00,230.10 556.40,230.10 556.40,230.10
             556.40,230.10 558.00,236.00 558.00,236.00
             558.00,236.00 523.00,242.00 523.00,242.00 Z
           M 2.00,261.00
           C -1.24,248.50 10.08,253.87 25.00,254.00
             25.00,254.00 23.98,260.40 23.98,260.40
             23.98,260.40 18.17,261.88 18.17,261.88
             18.17,261.88 2.00,261.00 2.00,261.00 Z
           M 538.00,263.00
           C 534.47,250.72 543.02,255.04 559.96,252.00
             559.96,252.00 559.96,259.44 559.96,259.44
             559.96,259.44 553.00,261.04 553.00,261.04
             553.00,261.04 538.00,263.00 538.00,263.00 Z
           M 44.00,277.00
           C 43.97,279.14 44.27,282.50 42.40,283.98
             40.81,285.23 36.99,285.00 35.00,285.00
             35.00,285.00 7.00,285.00 7.00,285.00
             -2.36,284.82 -2.36,277.18 7.00,277.00
             7.00,277.00 27.00,277.00 27.00,277.00
             27.00,277.00 44.00,277.00 44.00,277.00 Z
           M 518.00,285.00
           C 518.00,285.00 519.60,278.02 519.60,278.02
             519.60,278.02 527.00,277.00 527.00,277.00
             527.00,277.00 562.00,277.00 562.00,277.00
             562.00,277.00 560.40,283.98 560.40,283.98
             560.40,283.98 548.00,285.00 548.00,285.00
             548.00,285.00 518.00,285.00 518.00,285.00 Z
           M 1.00,309.00
           C 1.00,309.00 2.07,302.56 2.07,302.56
             2.07,302.56 8.00,300.72 8.00,300.72
             8.00,300.72 23.00,299.00 23.00,299.00
             24.87,303.13 24.96,303.58 24.00,308.00
             24.00,308.00 1.00,309.00 1.00,309.00 Z
           M 537.00,300.00
           C 537.00,300.00 561.00,301.00 561.00,301.00
             561.00,301.00 559.42,307.97 559.42,307.97
             559.42,307.97 554.58,308.73 554.58,308.73
             554.58,308.73 537.00,307.00 537.00,307.00
             537.00,307.00 537.00,300.00 537.00,300.00 Z
           M 4.00,326.00
           C 4.00,326.00 30.00,321.34 30.00,321.34
             32.72,320.78 37.82,318.90 39.39,322.30
             41.45,326.79 36.10,328.13 33.00,328.79
             33.00,328.79 5.00,333.00 5.00,333.00
             5.00,333.00 4.00,326.00 4.00,326.00 Z
           M 557.00,333.00
           C 549.31,332.52 534.58,330.15 527.02,328.42
             520.18,326.85 522.86,322.12 524.51,321.34
             526.29,320.02 531.84,321.22 534.00,321.34
             540.55,322.66 550.77,325.34 557.00,325.00
             557.00,325.00 557.00,333.00 557.00,333.00 Z
           M 9.00,350.00
           C 9.00,350.00 32.00,344.00 32.00,344.00
             32.00,344.00 33.00,352.00 33.00,352.00
             33.00,352.00 10.00,357.00 10.00,357.00
             10.00,357.00 9.00,350.00 9.00,350.00 Z
           M 530.00,345.00
           C 530.00,345.00 553.00,350.00 553.00,350.00
             553.00,350.00 551.00,357.00 551.00,357.00
             551.00,357.00 529.00,351.00 529.00,351.00
             529.00,351.00 530.00,345.00 530.00,345.00 Z
           M 51.00,369.00
           C 51.00,369.00 38.00,373.71 38.00,373.71
             38.00,373.71 29.00,377.00 29.00,377.00
             26.89,377.84 22.39,379.84 20.22,379.52
             17.17,379.08 15.97,375.14 18.41,372.82
             20.09,371.20 37.50,365.22 41.00,363.95
             43.01,363.23 46.49,361.73 48.57,362.62
             50.99,363.64 50.87,366.82 51.00,369.00 Z
           M 512.02,362.00
           C 518.72,362.70 539.63,370.69 546.00,374.00
             546.00,374.00 544.00,380.00 544.00,380.00
             544.00,380.00 520.00,372.14 520.00,372.14
             520.00,372.14 512.02,368.28 512.02,368.28
             512.02,368.28 512.02,362.00 512.02,362.00 Z
           M 28.00,403.00
           C 28.00,403.00 26.68,396.41 26.68,396.41
             26.68,396.41 32.00,392.69 32.00,392.69
             32.00,392.69 47.00,386.00 47.00,386.00
             47.00,386.00 47.88,392.73 47.88,392.73
             47.88,392.73 42.00,396.56 42.00,396.56
             42.00,396.56 28.00,403.00 28.00,403.00 Z
           M 515.00,387.00
           C 515.00,387.00 536.00,395.00 536.00,395.00
             536.00,395.00 534.00,403.00 534.00,403.00
             534.00,403.00 513.00,393.00 513.00,393.00
             513.00,393.00 515.00,387.00 515.00,387.00 Z
           M 73.00,396.00
           C 74.67,397.87 77.32,400.79 75.87,403.51
             75.03,405.09 68.83,408.31 67.00,409.40
             60.39,413.35 45.75,422.65 39.00,424.00
             39.00,424.00 38.08,417.47 38.08,417.47
             38.08,417.47 49.00,410.34 49.00,410.34
             49.00,410.34 73.00,396.00 73.00,396.00 Z
           M 485.00,404.00
           C 485.53,401.53 486.07,398.50 489.11,397.99
             491.51,397.58 495.86,400.29 498.00,401.46
             498.00,401.46 515.00,411.40 515.00,411.40
             516.95,412.55 522.16,415.30 523.41,416.79
             525.70,419.50 524.00,423.26 520.89,423.27
             518.71,423.28 512.26,419.18 510.00,417.91
             510.00,417.91 500.00,412.08 500.00,412.08
             493.38,408.29 492.41,407.19 485.00,404.00 Z
           M 53.00,445.00
           C 52.01,443.30 50.48,441.28 50.87,439.17
             51.64,435.09 65.04,427.31 69.00,426.00
             69.93,427.79 71.34,429.78 70.68,431.91
             69.77,434.85 56.22,443.34 53.00,445.00 Z
           M 493.00,426.00
           C 493.00,426.00 506.98,434.42 506.98,434.42
             506.98,434.42 511.43,439.92 511.43,439.92
             511.43,439.92 509.00,445.00 509.00,445.00
             509.00,445.00 490.00,432.00 490.00,432.00
             490.00,432.00 493.00,426.00 493.00,426.00 Z
           M 90.00,436.00
           C 93.36,438.61 93.78,438.90 95.00,443.00
             95.00,443.00 76.00,458.43 76.00,458.43
             74.06,460.03 70.84,463.45 68.09,462.66
             63.33,461.28 65.81,456.65 68.09,454.42
             68.09,454.42 90.00,436.00 90.00,436.00 Z
           M 471.00,436.00
           C 471.00,436.00 490.00,450.87 490.00,450.87
             490.00,450.87 496.70,458.01 496.70,458.01
             496.70,458.01 495.00,464.00 495.00,464.00
             488.14,461.31 480.91,453.85 474.96,449.10
             472.96,447.50 468.98,444.53 468.34,442.00
             467.69,439.44 469.57,437.78 471.00,436.00 Z
           M 85.00,482.00
           C 83.67,480.40 81.67,478.57 81.80,476.28
             81.96,473.27 91.40,464.27 94.00,462.59
             95.64,461.54 96.26,461.51 98.00,461.00
             98.00,461.00 101.00,464.00 101.00,464.00
             99.05,470.63 90.57,478.01 85.00,482.00 Z
           M 464.00,461.00
           C 469.24,462.56 473.26,467.13 476.98,471.00
             478.39,472.47 480.80,474.77 480.80,476.96
             480.80,479.61 477.94,480.91 476.00,482.00
             471.41,476.08 463.43,470.72 461.00,464.00
             461.00,464.00 464.00,461.00 464.00,461.00 Z
           M 98.00,492.00
           C 103.12,487.47 109.84,478.46 114.46,473.00
             119.02,467.62 122.33,465.54 126.00,473.00
             121.13,477.35 114.72,485.74 110.28,491.00
             105.80,496.31 102.42,501.00 98.00,492.00 Z
           M 464.00,495.00
           C 462.51,495.77 460.77,496.96 459.01,496.85
             455.23,496.60 446.28,484.29 443.61,481.00
             441.97,478.98 438.07,474.55 437.87,472.02
             437.65,469.20 440.09,467.28 442.97,468.74
             444.90,469.73 448.45,474.19 450.05,476.00
             450.05,476.00 456.00,483.00 456.00,483.00
             459.40,487.20 462.46,489.75 464.00,495.00 Z
           M 158.00,485.00
           C 160.47,485.53 163.50,486.07 164.01,489.11
             164.42,491.53 161.71,495.85 160.54,498.00
             160.54,498.00 150.60,515.00 150.60,515.00
             149.51,516.85 146.71,522.25 145.37,523.39
             142.69,525.64 138.74,524.12 138.73,520.89
             138.72,518.71 142.82,512.26 144.09,510.00
             144.09,510.00 149.92,500.00 149.92,500.00
             153.71,493.38 154.81,492.41 158.00,485.00 Z
           M 424.00,524.00
           C 422.30,524.43 420.08,525.27 418.38,524.57
             416.15,523.65 413.91,519.08 412.72,517.00
             412.72,517.00 402.99,500.00 402.99,500.00
             401.68,497.77 398.09,492.39 397.96,490.04
             397.76,486.35 401.19,485.61 404.00,485.00
             408.70,495.91 422.20,514.39 424.00,524.00 Z
           M 117.00,507.00
           C 127.77,497.34 125.62,487.59 136.00,493.00
             136.00,493.00 124.00,513.00 124.00,513.00
             124.00,513.00 117.00,507.00 117.00,507.00 Z
           M 426.00,494.00
           C 427.44,492.85 428.95,491.19 430.96,491.20
             433.99,491.20 436.40,495.79 437.86,498.00
             442.16,504.50 447.15,507.82 439.00,513.00
             439.00,513.00 426.00,494.00 426.00,494.00 Z
           M 374.00,546.00
           C 374.00,546.00 364.86,523.00 364.86,523.00
             364.86,523.00 362.68,513.42 362.68,513.42
             362.68,513.42 369.00,510.00 369.00,510.00
             369.00,510.00 377.12,533.00 377.12,533.00
             377.12,533.00 379.31,542.70 379.31,542.70
             379.31,542.70 374.00,546.00 374.00,546.00 Z
           M 193.00,511.00
           C 193.00,511.00 200.00,512.00 200.00,512.00
             200.00,512.00 189.00,546.00 189.00,546.00
             189.00,546.00 182.00,544.00 182.00,544.00
             182.00,544.00 193.00,511.00 193.00,511.00 Z
           M 169.00,513.00
           C 169.00,513.00 175.00,515.00 175.00,515.00
             175.00,515.00 167.00,536.00 167.00,536.00
             167.00,536.00 159.00,534.00 159.00,534.00
             159.00,534.00 169.00,513.00 169.00,513.00 Z
           M 396.00,537.00
           C 389.02,519.56 382.84,514.88 394.00,513.00
             400.59,528.52 405.79,532.89 396.00,537.00 Z
           M 285.00,562.00
           C 285.00,562.00 278.02,560.40 278.02,560.40
             278.02,560.40 277.08,555.00 277.08,555.00
             277.08,555.00 277.08,530.72 277.08,530.72
             277.08,530.72 278.17,519.57 278.17,519.57
             278.17,519.57 285.00,518.00 285.00,518.00
             285.00,518.00 285.00,562.00 285.00,562.00 Z
           M 229.00,557.00
           C 229.00,557.00 233.12,531.00 233.12,531.00
             233.12,531.00 235.60,523.06 235.60,523.06
             235.60,523.06 242.00,523.06 242.00,523.06
             242.00,523.06 237.00,557.00 237.00,557.00
             237.00,557.00 229.00,557.00 229.00,557.00 Z
           M 326.00,558.00
           C 326.00,558.00 323.61,544.00 323.61,544.00
             323.61,544.00 322.00,535.00 322.00,535.00
             321.56,532.74 319.94,526.37 320.62,524.45
             321.51,521.95 325.43,521.75 327.03,523.62
             328.20,524.99 328.84,529.15 329.20,531.00
             329.20,531.00 332.27,548.00 332.27,548.00
             332.41,549.98 333.25,553.77 332.27,555.57
             331.28,557.99 328.25,557.87 326.00,558.00 Z
           M 211.00,529.00
           C 211.00,529.00 217.00,530.00 217.00,530.00
             217.00,530.00 212.00,553.00 212.00,553.00
             212.00,553.00 205.00,551.00 205.00,551.00
             205.00,551.00 211.00,529.00 211.00,529.00 Z
           M 344.00,530.02
           C 344.00,530.02 350.44,530.02 350.44,530.02
             350.44,530.02 353.15,536.00 353.15,536.00
             353.15,536.00 357.00,552.00 357.00,552.00
             357.00,552.00 350.00,553.00 350.00,553.00
             350.00,553.00 344.00,530.02 344.00,530.02 Z
           M 255.00,537.00
           C 255.00,537.00 263.00,538.00 263.00,538.00
             263.00,538.00 261.09,553.00 261.09,553.00
             261.09,553.00 259.47,559.79 259.47,559.79
             259.47,559.79 253.00,561.00 253.00,561.00
             253.00,561.00 255.00,537.00 255.00,537.00 Z
           M 300.00,537.00
           C 300.00,537.00 307.00,537.00 307.00,537.00
             307.80,543.08 309.55,555.49 308.00,561.00
             308.00,561.00 301.00,560.00 301.00,560.00
             301.00,560.00 300.00,537.00 300.00,537.00 Z" />
</svg>
