<?xml version="1.0" encoding="UTF-8" standalone="no"?>
<!DOCTYPE svg PUBLIC "-//W3C//DTD SVG 20010904//EN"
              "http://www.w3.org/TR/2001/REC-SVG-20010904/DTD/svg10.dtd">

<svg xmlns="http://www.w3.org/2000/svg"
     width="0.25in" height="0.25in"
     viewBox="0 0 94 143">
  <path id="Selection"
        fill="#0AE1E9" stroke="black" stroke-width="1"
        d="M 38.00,115.00
           C 38.00,115.00 38.00,98.00 38.00,98.00
             37.91,84.62 31.67,91.64 18.01,79.70
             8.41,71.31 4.32,60.44 3.51,48.00
             3.21,43.31 4.40,36.41 6.06,32.00
             19.87,-4.53 70.59,-6.44 86.69,29.00
             89.11,34.33 90.67,41.13 90.66,47.00
             90.66,59.48 84.62,72.63 75.00,80.53
             71.57,83.35 68.06,85.38 64.00,87.13
             61.57,88.18 57.50,89.19 56.02,91.42
             54.78,93.29 55.00,96.79 55.00,99.00
             55.00,99.00 55.00,130.00 55.00,130.00
             55.00,130.00 36.00,130.00 36.00,130.00
             36.00,130.00 36.00,140.00 36.00,140.00
             36.00,140.00 20.00,140.00 20.00,140.00
             20.00,140.00 20.00,100.00 20.00,100.00
             20.00,100.00 36.00,100.00 36.00,100.00
             36.00,100.00 36.00,115.00 36.00,115.00
             36.00,115.00 38.00,115.00 38.00,115.00 Z
           M 41.00,16.30
           C 26.77,19.08 16.18,30.22 16.00,45.00
             15.97,48.01 15.87,52.12 16.53,55.00
             19.53,68.08 31.68,77.84 45.00,78.00
             55.03,78.12 62.52,76.57 69.82,68.91
             84.47,53.53 79.48,27.00 60.00,18.35
             53.98,15.67 47.44,15.66 41.00,16.30 Z
           M 46.00,38.71
           C 58.83,38.97 57.52,54.16 48.00,55.29
             38.35,56.43 33.71,41.91 46.00,38.71 Z" />
</svg>
